<svg width="280" height="4" viewBox="0 0 280 4" fill="none" xmlns="http://www.w3.org/2000/svg">
<g clip-path="url(#clip0_10_8)">
<path fill-rule="evenodd" clip-rule="evenodd" d="M0 4C-0.530433 4 -1.03914 3.78929 -1.41421 3.41421C-1.78929 3.03914 -2 2.53043 -2 2C-2 1.46957 -1.78929 0.960859 -1.41421 0.585786C-1.03914 0.210714 -0.530433 0 0 0C0.530433 0 1.03914 0.210714 1.41421 0.585786C1.78929 0.960859 2 1.46957 2 2C2 2.53043 1.78929 3.03914 1.41421 3.41421C1.03914 3.78929 0.530433 4 0 4ZM280 4C279.47 4 278.961 3.78929 278.586 3.41421C278.211 3.03914 278 2.53043 278 2C278 1.46957 278.211 0.960859 278.586 0.585786C278.961 0.210714 279.47 0 280 0C280.53 0 281.039 0.210714 281.414 0.585786C281.789 0.960859 282 1.46957 282 2C282 2.53043 281.789 3.03914 281.414 3.41421C281.039 3.78929 280.53 4 280 4ZM263 4C262.47 4 261.961 3.78929 261.586 3.41421C261.211 3.03914 261 2.53043 261 2C261 1.46957 261.211 0.960859 261.586 0.585786C261.961 0.210714 262.47 0 263 0C263.53 0 264.039 0.210714 264.414 0.585786C264.789 0.960859 265 1.46957 265 2C265 2.53043 264.789 3.03914 264.414 3.41421C264.039 3.78929 263.53 4 263 4ZM228 4C227.47 4 226.961 3.78929 226.586 3.41421C226.211 3.03914 226 2.53043 226 2C226 1.46957 226.211 0.960859 226.586 0.585786C226.961 0.210714 227.47 0 228 0C228.53 0 229.039 0.210714 229.414 0.585786C229.789 0.960859 230 1.46957 230 2C230 2.53043 229.789 3.03914 229.414 3.41421C229.039 3.78929 228.53 4 228 4ZM193 4C192.47 4 191.961 3.78929 191.586 3.41421C191.211 3.03914 191 2.53043 191 2C191 1.46957 191.211 0.960859 191.586 0.585786C191.961 0.210714 192.47 0 193 0C193.53 0 194.039 0.210714 194.414 0.585786C194.789 0.960859 195 1.46957 195 2C195 2.53043 194.789 3.03914 194.414 3.41421C194.039 3.78929 193.53 4 193 4ZM158 4C157.47 4 156.961 3.78929 156.586 3.41421C156.211 3.03914 156 2.53043 156 2C156 1.46957 156.211 0.960859 156.586 0.585786C156.961 0.210714 157.47 0 158 0C158.53 0 159.039 0.210714 159.414 0.585786C159.789 0.960859 160 1.46957 160 2C160 2.53043 159.789 3.03914 159.414 3.41421C159.039 3.78929 158.53 4 158 4ZM140 4C139.47 4 138.961 3.78929 138.586 3.41421C138.211 3.03914 138 2.53043 138 2C138 1.46957 138.211 0.960859 138.586 0.585786C138.961 0.210714 139.47 0 140 0C140.53 0 141.039 0.210714 141.414 0.585786C141.789 0.960859 142 1.46957 142 2C142 2.53043 141.789 3.03914 141.414 3.41421C141.039 3.78929 140.53 4 140 4ZM123 4C122.47 4 121.961 3.78929 121.586 3.41421C121.211 3.03914 121 2.53043 121 2C121 1.46957 121.211 0.960859 121.586 0.585786C121.961 0.210714 122.47 0 123 0C123.53 0 124.039 0.210714 124.414 0.585786C124.789 0.960859 125 1.46957 125 2C125 2.53043 124.789 3.03914 124.414 3.41421C124.039 3.78929 123.53 4 123 4ZM245 4C244.47 4 243.961 3.78929 243.586 3.41421C243.211 3.03914 243 2.53043 243 2C243 1.46957 243.211 0.960859 243.586 0.585786C243.961 0.210714 244.47 0 245 0C245.53 0 246.039 0.210714 246.414 0.585786C246.789 0.960859 247 1.46957 247 2C247 2.53043 246.789 3.03914 246.414 3.41421C246.039 3.78929 245.53 4 245 4ZM210 4C209.47 4 208.961 3.78929 208.586 3.41421C208.211 3.03914 208 2.53043 208 2C208 1.46957 208.211 0.960859 208.586 0.585786C208.961 0.210714 209.47 0 210 0C210.53 0 211.039 0.210714 211.414 0.585786C211.789 0.960859 212 1.46957 212 2C212 2.53043 211.789 3.03914 211.414 3.41421C211.039 3.78929 210.53 4 210 4ZM175 4C174.47 4 173.961 3.78929 173.586 3.41421C173.211 3.03914 173 2.53043 173 2C173 1.46957 173.211 0.960859 173.586 0.585786C173.961 0.210714 174.47 0 175 0C175.53 0 176.039 0.210714 176.414 0.585786C176.789 0.960859 177 1.46957 177 2C177 2.53043 176.789 3.03914 176.414 3.41421C176.039 3.78929 175.53 4 175 4ZM105 4C104.47 4 103.961 3.78929 103.586 3.41421C103.211 3.03914 103 2.53043 103 2C103 1.46957 103.211 0.960859 103.586 0.585786C103.961 0.210714 104.47 0 105 0C105.53 0 106.039 0.210714 106.414 0.585786C106.789 0.960859 107 1.46957 107 2C107 2.53043 106.789 3.03914 106.414 3.41421C106.039 3.78929 105.53 4 105 4ZM88 4C87.4696 4 86.9609 3.78929 86.5858 3.41421C86.2107 3.03914 86 2.53043 86 2C86 1.46957 86.2107 0.960859 86.5858 0.585786C86.9609 0.210714 87.4696 0 88 0C88.5304 0 89.0391 0.210714 89.4142 0.585786C89.7893 0.960859 90 1.46957 90 2C90 2.53043 89.7893 3.03914 89.4142 3.41421C89.0391 3.78929 88.5304 4 88 4ZM70 4C69.4696 4 68.9609 3.78929 68.5858 3.41421C68.2107 3.03914 68 2.53043 68 2C68 1.46957 68.2107 0.960859 68.5858 0.585786C68.9609 0.210714 69.4696 0 70 0C70.5304 0 71.0391 0.210714 71.4142 0.585786C71.7893 0.960859 72 1.46957 72 2C72 2.53043 71.7893 3.03914 71.4142 3.41421C71.0391 3.78929 70.5304 4 70 4ZM53 4C52.4696 4 51.9609 3.78929 51.5858 3.41421C51.2107 3.03914 51 2.53043 51 2C51 1.46957 51.2107 0.960859 51.5858 0.585786C51.9609 0.210714 52.4696 0 53 0C53.5304 0 54.0391 0.210714 54.4142 0.585786C54.7893 0.960859 55 1.46957 55 2C55 2.53043 54.7893 3.03914 54.4142 3.41421C54.0391 3.78929 53.5304 4 53 4ZM35 4C34.4696 4 33.9609 3.78929 33.5858 3.41421C33.2107 3.03914 33 2.53043 33 2C33 1.46957 33.2107 0.960859 33.5858 0.585786C33.9609 0.210714 34.4696 0 35 0C35.5304 0 36.0391 0.210714 36.4142 0.585786C36.7893 0.960859 37 1.46957 37 2C37 2.53043 36.7893 3.03914 36.4142 3.41421C36.0391 3.78929 35.5304 4 35 4ZM18 4C17.4696 4 16.9609 3.78929 16.5858 3.41421C16.2107 3.03914 16 2.53043 16 2C16 1.46957 16.2107 0.960859 16.5858 0.585786C16.9609 0.210714 17.4696 0 18 0C18.5304 0 19.0391 0.210714 19.4142 0.585786C19.7893 0.960859 20 1.46957 20 2C20 2.53043 19.7893 3.03914 19.4142 3.41421C19.0391 3.78929 18.5304 4 18 4Z" fill="#563444" fill-opacity="0.7"/>
</g>
<defs>
<clipPath id="clip0_10_8">
<rect width="280" height="4" fill="white"/>
</clipPath>
</defs>
</svg>
