<svg width="24" height="24" viewBox="0 0 24 24" fill="none" xmlns="http://www.w3.org/2000/svg">
<path d="M13.9701 11.7575C13.8362 11.2217 13.2933 10.8959 12.7575 11.0299C12.2217 11.1638 11.8959 11.7067 12.0299 12.2425L13.9701 11.7575ZM14.5 18L13.5299 18.2425C13.6411 18.6877 14.0411 19 14.5 19C14.9589 19 15.3589 18.6877 15.4701 18.2425L14.5 18ZM16.9701 12.2425C17.1041 11.7067 16.7783 11.1638 16.2425 11.0299C15.7067 10.8959 15.1638 11.2217 15.0299 11.7575L16.9701 12.2425ZM11 19C11.5523 19 12 18.5523 12 18C12 17.4477 11.5523 17 11 17V19ZM11 13C11.5523 13 12 12.5523 12 12C12 11.4477 11.5523 11 11 11V13ZM14 3.17979C14 2.6275 13.5523 2.17979 13 2.17979C12.4477 2.17979 12 2.6275 12 3.17979H14ZM18.82 9.99998C19.3723 9.99998 19.82 9.55227 19.82 8.99998C19.82 8.4477 19.3723 7.99998 18.82 7.99998V9.99998ZM15.8 20H8.2V22H15.8V20ZM6 17.8V6.19998H4V17.8H6ZM8.2 3.99998H11.6745V1.99998H8.2V3.99998ZM18 10.3255V17.8H20V10.3255H18ZM11.6745 3.99998C12.2113 3.99998 12.3167 4.00641 12.405 4.02761L12.8719 2.08287C12.4999 1.99355 12.1161 1.99998 11.6745 1.99998V3.99998ZM14.6444 3.23013C14.3321 2.91789 14.0653 2.64197 13.7391 2.44206L12.6941 4.14734C12.7715 4.1948 12.8506 4.26478 13.2302 4.64435L14.6444 3.23013ZM12.405 4.02761C12.5071 4.05211 12.6046 4.09251 12.6941 4.14734L13.7391 2.44206C13.4707 2.27757 13.178 2.15636 12.8719 2.08287L12.405 4.02761ZM8.2 20C7.62345 20 7.25117 19.9992 6.96784 19.9761C6.69617 19.9539 6.59545 19.9162 6.54601 19.891L5.63803 21.673C6.01641 21.8658 6.40963 21.9371 6.80497 21.9694C7.18864 22.0008 7.65645 22 8.2 22V20ZM4 17.8C4 18.3436 3.99922 18.8114 4.03057 19.195C4.06287 19.5904 4.13419 19.9836 4.32698 20.362L6.10899 19.454C6.0838 19.4045 6.04612 19.3038 6.02393 19.0322C6.00078 18.7488 6 18.3766 6 17.8H4ZM6.54601 19.891C6.35785 19.7951 6.20487 19.6422 6.10899 19.454L4.32698 20.362C4.6146 20.9265 5.07354 21.3854 5.63803 21.673L6.54601 19.891ZM15.8 22C16.3436 22 16.8114 22.0008 17.195 21.9694C17.5904 21.9371 17.9836 21.8658 18.362 21.673L17.454 19.891C17.4045 19.9162 17.3038 19.9539 17.0322 19.9761C16.7488 19.9992 16.3766 20 15.8 20V22ZM18 17.8C18 18.3766 17.9992 18.7488 17.9761 19.0322C17.9539 19.3038 17.9162 19.4045 17.891 19.454L19.673 20.362C19.8658 19.9836 19.9371 19.5904 19.9694 19.195C20.0008 18.8114 20 18.3436 20 17.8H18ZM18.362 21.673C18.9265 21.3854 19.3854 20.9265 19.673 20.362L17.891 19.454C17.7951 19.6422 17.6422 19.7951 17.454 19.891L18.362 21.673ZM17.3556 8.76983C17.7352 9.14939 17.8052 9.22847 17.8526 9.30591L19.5579 8.26091C19.358 7.93469 19.0821 7.66786 18.7698 7.35561L17.3556 8.76983ZM20 10.3255C20 9.88388 20.0064 9.5001 19.9171 9.12807L17.9724 9.59496C17.9936 9.68328 18 9.78868 18 10.3255H20ZM17.8526 9.30591C17.9075 9.39538 17.9479 9.49293 17.9724 9.59496L19.9171 9.12807C19.8436 8.82196 19.7224 8.52933 19.5579 8.26091L17.8526 9.30591ZM6 6.19998C6 5.62343 6.00078 5.25115 6.02393 4.96782C6.04612 4.69615 6.0838 4.59543 6.10899 4.54599L4.32698 3.63801C4.13419 4.01639 4.06287 4.40961 4.03057 4.80495C3.99922 5.18862 4 5.65643 4 6.19998H6ZM8.2 1.99998C7.65645 1.99998 7.18864 1.9992 6.80497 2.03055C6.40963 2.06285 6.01641 2.13417 5.63803 2.32696L6.54601 4.10897C6.59545 4.08378 6.69617 4.0461 6.96784 4.02391C7.25117 4.00076 7.62345 3.99998 8.2 3.99998V1.99998ZM6.10899 4.54599C6.20487 4.35783 6.35785 4.20485 6.54601 4.10897L5.63803 2.32696C5.07354 2.61458 4.6146 3.07352 4.32698 3.63801L6.10899 4.54599ZM12.0299 12.2425L13.5299 18.2425L15.4701 17.7575L13.9701 11.7575L12.0299 12.2425ZM15.4701 18.2425L16.9701 12.2425L15.0299 11.7575L13.5299 17.7575L15.4701 18.2425ZM11 17C10.5204 17 10.2107 16.9995 9.97376 16.9833C9.74576 16.9677 9.65893 16.9411 9.61732 16.9239L8.85195 18.7716C9.17788 18.9066 9.50779 18.9561 9.83762 18.9787C10.1585 19.0005 10.5477 19 11 19V17ZM7 15C7 15.4523 6.99946 15.8415 7.02135 16.1624C7.04385 16.4922 7.09336 16.8221 7.22836 17.1481L9.07612 16.3827C9.05888 16.3411 9.03227 16.2542 9.01671 16.0262C9.00054 15.7893 9 15.4796 9 15H7ZM9.61732 16.9239C9.37229 16.8224 9.17761 16.6277 9.07612 16.3827L7.22836 17.1481C7.53284 17.8831 8.11687 18.4672 8.85195 18.7716L9.61732 16.9239ZM11 11C10.5477 11 10.1585 10.9995 9.83762 11.0213C9.50779 11.0439 9.17788 11.0934 8.85195 11.2284L9.61732 13.0761C9.65893 13.0589 9.74576 13.0323 9.97376 13.0167C10.2107 13.0005 10.5204 13 11 13V11ZM9 15C9 14.5204 9.00054 14.2107 9.01671 13.9738C9.03227 13.7458 9.05888 13.6589 9.07612 13.6173L7.22836 12.8519C7.09336 13.1779 7.04385 13.5078 7.02135 13.8376C6.99946 14.1585 7 14.5477 7 15H9ZM8.85195 11.2284C8.11686 11.5328 7.53284 12.1169 7.22836 12.8519L9.07612 13.6173C9.17761 13.3723 9.37229 13.1776 9.61732 13.0761L8.85195 11.2284ZM12 3.17979V7.99998H14V3.17979H12ZM14 9.99998H18.82V7.99998H14V9.99998ZM12 7.99998C12 9.10455 12.8954 9.99998 14 9.99998V7.99998H12ZM13.2302 4.64435L17.3556 8.76983L18.7698 7.35561L14.6444 3.23013L13.2302 4.64435Z" fill="white"/>
</svg>
