<svg width="478" height="416" viewBox="0 0 478 416" fill="none" xmlns="http://www.w3.org/2000/svg">
<path d="M342 0H8C3.58172 0 0 3.58172 0 8V338C0 342.418 3.58172 346 8 346H342C346.418 346 350 342.418 350 338V8C350 3.58172 346.418 0 342 0Z" fill="#E8EAF6"/>
<mask id="mask0_4_162" style="mask-type:luminance" maskUnits="userSpaceOnUse" x="0" y="0" width="350" height="346">
<path d="M342 0H8C3.58172 0 0 3.58172 0 8V338C0 342.418 3.58172 346 8 346H342C346.418 346 350 342.418 350 338V8C350 3.58172 346.418 0 342 0Z" fill="white"/>
</mask>
<g mask="url(#mask0_4_162)">
<path fill-rule="evenodd" clip-rule="evenodd" d="M-3.53 0.196991H543.47V59.197H-3.53V0.196991Z" fill="#563444"/>
<path opacity="0.245" d="M38.47 46.197C47.3066 46.197 54.47 39.0335 54.47 30.197C54.47 21.3604 47.3066 14.197 38.47 14.197C29.6334 14.197 22.47 21.3604 22.47 30.197C22.47 39.0335 29.6334 46.197 38.47 46.197Z" fill="white"/>
<path opacity="0.75" d="M186.47 20.197H72.47C70.8131 20.197 69.47 21.5401 69.47 23.197C69.47 24.8538 70.8131 26.197 72.47 26.197H186.47C188.127 26.197 189.47 24.8538 189.47 23.197C189.47 21.5401 188.127 20.197 186.47 20.197Z" fill="white"/>
<path opacity="0.25" d="M130.47 34.197H72.47C70.8131 34.197 69.47 35.5401 69.47 37.197C69.47 38.8538 70.8131 40.197 72.47 40.197H130.47C132.127 40.197 133.47 38.8538 133.47 37.197C133.47 35.5401 132.127 34.197 130.47 34.197Z" fill="white"/>
</g>
<g filter="url(#filter0_d_4_162)">
<path d="M219 138H35C30.5817 138 27 141.582 27 146V385C27 389.418 30.5817 393 35 393H219C223.418 393 227 389.418 227 385V146C227 141.582 223.418 138 219 138Z" fill="black"/>
</g>
<path d="M219 138H35C30.5817 138 27 141.582 27 146V385C27 389.418 30.5817 393 35 393H219C223.418 393 227 389.418 227 385V146C227 141.582 223.418 138 219 138Z" fill="white"/>
<path opacity="0.5" d="M194 173H98.683C97.0261 173 95.683 174.343 95.683 176C95.683 177.657 97.0261 179 98.683 179H194C195.657 179 197 177.657 197 176C197 174.343 195.657 173 194 173Z" fill="#242A45"/>
<path d="M66 199C74.8366 199 82 191.837 82 183C82 174.163 74.8366 167 66 167C57.1634 167 50 174.163 50 183C50 191.837 57.1634 199 66 199Z" fill="#22C7E8"/>
<path opacity="0.25" d="M146.719 187H98.683C97.0261 187 95.683 188.343 95.683 190C95.683 191.657 97.0261 193 98.683 193H146.719C148.376 193 149.719 191.657 149.719 190C149.719 188.343 148.376 187 146.719 187Z" fill="#242A45"/>
<path d="M66 255C74.8366 255 82 247.837 82 239C82 230.163 74.8366 223 66 223C57.1634 223 50 230.163 50 239C50 247.837 57.1634 255 66 255Z" fill="#6A5E72"/>
<path opacity="0.5" d="M194 229H98.683C97.0261 229 95.683 230.343 95.683 232C95.683 233.657 97.0261 235 98.683 235H194C195.657 235 197 233.657 197 232C197 230.343 195.657 229 194 229Z" fill="#242A45"/>
<path opacity="0.25" d="M146.719 243H98.683C97.0261 243 95.683 244.343 95.683 246C95.683 247.657 97.0261 249 98.683 249H146.719C148.376 249 149.719 247.657 149.719 246C149.719 244.343 148.376 243 146.719 243Z" fill="#242A45"/>
<path d="M66 311C74.8366 311 82 303.837 82 295C82 286.163 74.8366 279 66 279C57.1634 279 50 286.163 50 295C50 303.837 57.1634 311 66 311Z" fill="#6A5E72"/>
<path opacity="0.5" d="M194 285H98.683C97.0261 285 95.683 286.343 95.683 288C95.683 289.657 97.0261 291 98.683 291H194C195.657 291 197 289.657 197 288C197 286.343 195.657 285 194 285Z" fill="#242A45"/>
<path opacity="0.25" d="M146.719 299H98.683C97.0261 299 95.683 300.343 95.683 302C95.683 303.657 97.0261 305 98.683 305H146.719C148.376 305 149.719 303.657 149.719 302C149.719 300.343 148.376 299 146.719 299Z" fill="#242A45"/>
<path d="M66 367C74.8366 367 82 359.837 82 351C82 342.163 74.8366 335 66 335C57.1634 335 50 342.163 50 351C50 359.837 57.1634 367 66 367Z" fill="#6A5E72"/>
<path opacity="0.5" d="M194 341H98.683C97.0261 341 95.683 342.343 95.683 344C95.683 345.657 97.0261 347 98.683 347H194C195.657 347 197 345.657 197 344C197 342.343 195.657 341 194 341Z" fill="#242A45"/>
<path opacity="0.25" d="M146.719 355H98.683C97.0261 355 95.683 356.343 95.683 358C95.683 359.657 97.0261 361 98.683 361H146.719C148.376 361 149.719 359.657 149.719 358C149.719 356.343 148.376 355 146.719 355Z" fill="#242A45"/>
<g filter="url(#filter1_d_4_162)">
<g filter="url(#filter2_d_4_162)">
<path d="M443 138H259C254.582 138 251 141.582 251 146V385C251 389.418 254.582 393 259 393H443C447.418 393 451 389.418 451 385V146C451 141.582 447.418 138 443 138Z" fill="black"/>
</g>
<path d="M443 138H259C254.582 138 251 141.582 251 146V385C251 389.418 254.582 393 259 393H443C447.418 393 451 389.418 451 385V146C451 141.582 447.418 138 443 138Z" fill="white"/>
<path opacity="0.5" d="M418 173H322.683C321.026 173 319.683 174.343 319.683 176C319.683 177.657 321.026 179 322.683 179H418C419.657 179 421 177.657 421 176C421 174.343 419.657 173 418 173Z" fill="#242A45"/>
<path d="M290 199C298.837 199 306 191.837 306 183C306 174.163 298.837 167 290 167C281.163 167 274 174.163 274 183C274 191.837 281.163 199 290 199Z" fill="#22C7E8"/>
<path opacity="0.25" d="M370.719 187H322.683C321.026 187 319.683 188.343 319.683 190C319.683 191.657 321.026 193 322.683 193H370.719C372.376 193 373.719 191.657 373.719 190C373.719 188.343 372.376 187 370.719 187Z" fill="#242A45"/>
<path d="M290 255C298.837 255 306 247.837 306 239C306 230.163 298.837 223 290 223C281.163 223 274 230.163 274 239C274 247.837 281.163 255 290 255Z" fill="#6A5E72"/>
<path opacity="0.5" d="M418 229H322.683C321.026 229 319.683 230.343 319.683 232C319.683 233.657 321.026 235 322.683 235H418C419.657 235 421 233.657 421 232C421 230.343 419.657 229 418 229Z" fill="#242A45"/>
<path opacity="0.25" d="M370.719 243H322.683C321.026 243 319.683 244.343 319.683 246C319.683 247.657 321.026 249 322.683 249H370.719C372.376 249 373.719 247.657 373.719 246C373.719 244.343 372.376 243 370.719 243Z" fill="#242A45"/>
<path d="M290 311C298.837 311 306 303.837 306 295C306 286.163 298.837 279 290 279C281.163 279 274 286.163 274 295C274 303.837 281.163 311 290 311Z" fill="#22C7E8"/>
<path opacity="0.5" d="M418 285H322.683C321.026 285 319.683 286.343 319.683 288C319.683 289.657 321.026 291 322.683 291H418C419.657 291 421 289.657 421 288C421 286.343 419.657 285 418 285Z" fill="#242A45"/>
<path opacity="0.25" d="M370.719 299H322.683C321.026 299 319.683 300.343 319.683 302C319.683 303.657 321.026 305 322.683 305H370.719C372.376 305 373.719 303.657 373.719 302C373.719 300.343 372.376 299 370.719 299Z" fill="#242A45"/>
<path d="M290 367C298.837 367 306 359.837 306 351C306 342.163 298.837 335 290 335C281.163 335 274 342.163 274 351C274 359.837 281.163 367 290 367Z" fill="#22C7E8"/>
<path opacity="0.5" d="M418 341H322.683C321.026 341 319.683 342.343 319.683 344C319.683 345.657 321.026 347 322.683 347H418C419.657 347 421 345.657 421 344C421 342.343 419.657 341 418 341Z" fill="#242A45"/>
<path opacity="0.25" d="M370.719 355H322.683C321.026 355 319.683 356.343 319.683 358C319.683 359.657 321.026 361 322.683 361H370.719C372.376 361 373.719 359.657 373.719 358C373.719 356.343 372.376 355 370.719 355Z" fill="#242A45"/>
</g>
<path d="M256 85H35C30.5817 85 27 88.5817 27 93V111C27 115.418 30.5817 119 35 119H256C260.418 119 264 115.418 264 111V93C264 88.5817 260.418 85 256 85Z" fill="white"/>
<path d="M372 236C409.003 236 439 206.003 439 169C439 131.997 409.003 102 372 102C334.997 102 305 131.997 305 169C305 206.003 334.997 236 372 236Z" fill="#495DCF" fill-opacity="0.2" stroke="#6A5E72" stroke-width="20"/>
<path d="M419 217L468 266" stroke="#6A5E72" stroke-width="20" stroke-linecap="round" stroke-linejoin="round"/>
<defs>
<filter id="filter0_d_4_162" x="17" y="133" width="220" height="275" filterUnits="userSpaceOnUse" color-interpolation-filters="sRGB">
<feFlood flood-opacity="0" result="BackgroundImageFix"/>
<feColorMatrix in="SourceAlpha" type="matrix" values="0 0 0 0 0 0 0 0 0 0 0 0 0 0 0 0 0 0 127 0" result="hardAlpha"/>
<feOffset dy="5"/>
<feGaussianBlur stdDeviation="5"/>
<feColorMatrix type="matrix" values="0 0 0 0 0.285333 0 0 0 0 0.363695 0 0 0 0 0.811481 0 0 0 0.0830693 0"/>
<feBlend mode="normal" in2="BackgroundImageFix" result="effect1_dropShadow_4_162"/>
<feBlend mode="normal" in="SourceGraphic" in2="effect1_dropShadow_4_162" result="shape"/>
</filter>
<filter id="filter1_d_4_162" x="241" y="133" width="220" height="275" filterUnits="userSpaceOnUse" color-interpolation-filters="sRGB">
<feFlood flood-opacity="0" result="BackgroundImageFix"/>
<feColorMatrix in="SourceAlpha" type="matrix" values="0 0 0 0 0 0 0 0 0 0 0 0 0 0 0 0 0 0 127 0" result="hardAlpha"/>
<feOffset dy="5"/>
<feGaussianBlur stdDeviation="5"/>
<feColorMatrix type="matrix" values="0 0 0 0 0.285333 0 0 0 0 0.363695 0 0 0 0 0.811481 0 0 0 0.0830693 0"/>
<feBlend mode="normal" in2="BackgroundImageFix" result="effect1_dropShadow_4_162"/>
<feBlend mode="normal" in="SourceGraphic" in2="effect1_dropShadow_4_162" result="shape"/>
</filter>
<filter id="filter2_d_4_162" x="241" y="133" width="220" height="275" filterUnits="userSpaceOnUse" color-interpolation-filters="sRGB">
<feFlood flood-opacity="0" result="BackgroundImageFix"/>
<feColorMatrix in="SourceAlpha" type="matrix" values="0 0 0 0 0 0 0 0 0 0 0 0 0 0 0 0 0 0 127 0" result="hardAlpha"/>
<feOffset dy="5"/>
<feGaussianBlur stdDeviation="5"/>
<feColorMatrix type="matrix" values="0 0 0 0 0.285333 0 0 0 0 0.363695 0 0 0 0 0.811481 0 0 0 0.0830693 0"/>
<feBlend mode="normal" in2="BackgroundImageFix" result="effect1_dropShadow_4_162"/>
<feBlend mode="normal" in="SourceGraphic" in2="effect1_dropShadow_4_162" result="shape"/>
</filter>
</defs>
</svg>
