<svg width="638" height="450" viewBox="0 0 638 450" fill="none" xmlns="http://www.w3.org/2000/svg">
<g clip-path="url(#clip0_12_106)" filter="url(#filter0_d_12_106)">
<mask id="mask0_12_106" style="mask-type:luminance" maskUnits="userSpaceOnUse" x="50" y="23" width="536" height="346">
<path d="M586 23H50V369H586V23Z" fill="white"/>
</mask>
<g mask="url(#mask0_12_106)">
<mask id="mask1_12_106" style="mask-type:luminance" maskUnits="userSpaceOnUse" x="50" y="23" width="536" height="346">
<path d="M586 23H50V369H586V23Z" fill="white"/>
</mask>
<g mask="url(#mask1_12_106)">
<g filter="url(#filter1_d_12_106)">
<path d="M578 23H58C53.5817 23 50 26.5817 50 31V361C50 365.418 53.5817 369 58 369H578C582.418 369 586 365.418 586 361V31C586 26.5817 582.418 23 578 23Z" fill="#E8EAF6"/>
</g>
<mask id="mask2_12_106" style="mask-type:luminance" maskUnits="userSpaceOnUse" x="50" y="23" width="536" height="346">
<path d="M578 23H58C53.5817 23 50 26.5817 50 31V361C50 365.418 53.5817 369 58 369H578C582.418 369 586 365.418 586 361V31C586 26.5817 582.418 23 578 23Z" fill="white"/>
</mask>
<g mask="url(#mask2_12_106)">
<path fill-rule="evenodd" clip-rule="evenodd" d="M46.47 23.197H593.47V82.197H46.47V23.197Z" fill="#563444"/>
<path opacity="0.245" d="M88.47 69.197C97.3066 69.197 104.47 62.0335 104.47 53.197C104.47 44.3604 97.3066 37.197 88.47 37.197C79.6334 37.197 72.47 44.3604 72.47 53.197C72.47 62.0335 79.6334 69.197 88.47 69.197Z" fill="white"/>
<path opacity="0.104" d="M549.47 69.197C558.307 69.197 565.47 62.0335 565.47 53.197C565.47 44.3604 558.307 37.197 549.47 37.197C540.633 37.197 533.47 44.3604 533.47 53.197C533.47 62.0335 540.633 69.197 549.47 69.197Z" fill="white"/>
<path opacity="0.75" d="M236.47 43.197H122.47C120.813 43.197 119.47 44.5401 119.47 46.197C119.47 47.8538 120.813 49.197 122.47 49.197H236.47C238.127 49.197 239.47 47.8538 239.47 46.197C239.47 44.5401 238.127 43.197 236.47 43.197Z" fill="white"/>
<path opacity="0.25" d="M180.47 57.197H122.47C120.813 57.197 119.47 58.5401 119.47 60.197C119.47 61.8538 120.813 63.197 122.47 63.197H180.47C182.127 63.197 183.47 61.8538 183.47 60.197C183.47 58.5401 182.127 57.197 180.47 57.197Z" fill="white"/>
</g>
<mask id="mask3_12_106" style="mask-type:luminance" maskUnits="userSpaceOnUse" x="50" y="23" width="536" height="346">
<path d="M578 23H58C53.5817 23 50 26.5817 50 31V361C50 365.418 53.5817 369 58 369H578C582.418 369 586 365.418 586 361V31C586 26.5817 582.418 23 578 23Z" fill="white"/>
</mask>
<g mask="url(#mask3_12_106)">
<path d="M360 116H115C110.582 116 107 119.582 107 124V424C107 428.418 110.582 432 115 432H360C364.418 432 368 428.418 368 424V124C368 119.582 364.418 116 360 116Z" fill="white"/>
<path d="M522 116H410C405.582 116 402 119.582 402 124V424C402 428.418 405.582 432 410 432H522C526.418 432 530 428.418 530 424V124C530 119.582 526.418 116 522 116Z" fill="white"/>
<path opacity="0.5" d="M302.47 154.197H188.47C186.813 154.197 185.47 155.54 185.47 157.197C185.47 158.854 186.813 160.197 188.47 160.197H302.47C304.127 160.197 305.47 158.854 305.47 157.197C305.47 155.54 304.127 154.197 302.47 154.197Z" fill="#242A45"/>
</g>
<path d="M154.47 180.197C163.307 180.197 170.47 173.034 170.47 164.197C170.47 155.36 163.307 148.197 154.47 148.197C145.633 148.197 138.47 155.36 138.47 164.197C138.47 173.034 145.633 180.197 154.47 180.197Z" fill="#3E6876"/>
<path opacity="0.25" d="M507.47 138.197H425.47C423.813 138.197 422.47 139.54 422.47 141.197C422.47 142.854 423.813 144.197 425.47 144.197H507.47C509.127 144.197 510.47 142.854 510.47 141.197C510.47 139.54 509.127 138.197 507.47 138.197Z" fill="#242A45"/>
<path opacity="0.25" d="M507.47 158.197H425.47C423.813 158.197 422.47 159.54 422.47 161.197C422.47 162.854 423.813 164.197 425.47 164.197H507.47C509.127 164.197 510.47 162.854 510.47 161.197C510.47 159.54 509.127 158.197 507.47 158.197Z" fill="#242A45"/>
<path opacity="0.25" d="M507.47 178.197H425.47C423.813 178.197 422.47 179.54 422.47 181.197C422.47 182.854 423.813 184.197 425.47 184.197H507.47C509.127 184.197 510.47 182.854 510.47 181.197C510.47 179.54 509.127 178.197 507.47 178.197Z" fill="#242A45"/>
<path opacity="0.25" d="M507.47 198.197H425.47C423.813 198.197 422.47 199.54 422.47 201.197C422.47 202.854 423.813 204.197 425.47 204.197H507.47C509.127 204.197 510.47 202.854 510.47 201.197C510.47 199.54 509.127 198.197 507.47 198.197Z" fill="#242A45"/>
<path opacity="0.25" d="M507.47 232.197H425.47C423.813 232.197 422.47 233.54 422.47 235.197C422.47 236.854 423.813 238.197 425.47 238.197H507.47C509.127 238.197 510.47 236.854 510.47 235.197C510.47 233.54 509.127 232.197 507.47 232.197Z" fill="#242A45"/>
<path opacity="0.25" d="M507.47 252.197H425.47C423.813 252.197 422.47 253.54 422.47 255.197C422.47 256.854 423.813 258.197 425.47 258.197H507.47C509.127 258.197 510.47 256.854 510.47 255.197C510.47 253.54 509.127 252.197 507.47 252.197Z" fill="#242A45"/>
<path opacity="0.25" d="M507.47 272.197H425.47C423.813 272.197 422.47 273.54 422.47 275.197C422.47 276.854 423.813 278.197 425.47 278.197H507.47C509.127 278.197 510.47 276.854 510.47 275.197C510.47 273.54 509.127 272.197 507.47 272.197Z" fill="#242A45"/>
<path opacity="0.25" d="M246.47 168.197H188.47C186.813 168.197 185.47 169.54 185.47 171.197C185.47 172.854 186.813 174.197 188.47 174.197H246.47C248.127 174.197 249.47 172.854 249.47 171.197C249.47 169.54 248.127 168.197 246.47 168.197Z" fill="#242A45"/>
<path d="M154.47 236.197C163.307 236.197 170.47 229.034 170.47 220.197C170.47 211.36 163.307 204.197 154.47 204.197C145.633 204.197 138.47 211.36 138.47 220.197C138.47 229.034 145.633 236.197 154.47 236.197Z" fill="#6A5E72"/>
<path opacity="0.5" d="M302.47 210.197H188.47C186.813 210.197 185.47 211.54 185.47 213.197C185.47 214.854 186.813 216.197 188.47 216.197H302.47C304.127 216.197 305.47 214.854 305.47 213.197C305.47 211.54 304.127 210.197 302.47 210.197Z" fill="#242A45"/>
<path opacity="0.25" d="M246.47 224.197H188.47C186.813 224.197 185.47 225.54 185.47 227.197C185.47 228.854 186.813 230.197 188.47 230.197H246.47C248.127 230.197 249.47 228.854 249.47 227.197C249.47 225.54 248.127 224.197 246.47 224.197Z" fill="#242A45"/>
<path d="M154.47 292.197C163.307 292.197 170.47 285.034 170.47 276.197C170.47 267.36 163.307 260.197 154.47 260.197C145.633 260.197 138.47 267.36 138.47 276.197C138.47 285.034 145.633 292.197 154.47 292.197Z" fill="#FEE2E2"/>
<path opacity="0.5" d="M302.47 266.197H188.47C186.813 266.197 185.47 267.54 185.47 269.197C185.47 270.854 186.813 272.197 188.47 272.197H302.47C304.127 272.197 305.47 270.854 305.47 269.197C305.47 267.54 304.127 266.197 302.47 266.197Z" fill="#242A45"/>
<path opacity="0.25" d="M246.47 280.197H188.47C186.813 280.197 185.47 281.54 185.47 283.197C185.47 284.854 186.813 286.197 188.47 286.197H246.47C248.127 286.197 249.47 284.854 249.47 283.197C249.47 281.54 248.127 280.197 246.47 280.197Z" fill="#242A45"/>
<path d="M154.47 348.197C163.307 348.197 170.47 341.034 170.47 332.197C170.47 323.36 163.307 316.197 154.47 316.197C145.633 316.197 138.47 323.36 138.47 332.197C138.47 341.034 145.633 348.197 154.47 348.197Z" fill="#22C7E8"/>
<path opacity="0.5" d="M302.47 322.197H188.47C186.813 322.197 185.47 323.54 185.47 325.197C185.47 326.854 186.813 328.197 188.47 328.197H302.47C304.127 328.197 305.47 326.854 305.47 325.197C305.47 323.54 304.127 322.197 302.47 322.197Z" fill="#242A45"/>
<path opacity="0.25" d="M246.47 336.197H188.47C186.813 336.197 185.47 337.54 185.47 339.197C185.47 340.854 186.813 342.197 188.47 342.197H246.47C248.127 342.197 249.47 340.854 249.47 339.197C249.47 337.54 248.127 336.197 246.47 336.197Z" fill="#242A45"/>
</g>
</g>
</g>
<defs>
<filter id="filter0_d_12_106" x="-2" y="0" width="640" height="450" filterUnits="userSpaceOnUse" color-interpolation-filters="sRGB">
<feFlood flood-opacity="0" result="BackgroundImageFix"/>
<feColorMatrix in="SourceAlpha" type="matrix" values="0 0 0 0 0 0 0 0 0 0 0 0 0 0 0 0 0 0 127 0" result="hardAlpha"/>
<feOffset dy="29"/>
<feGaussianBlur stdDeviation="26"/>
<feComposite in2="hardAlpha" operator="out"/>
<feColorMatrix type="matrix" values="0 0 0 0 0 0 0 0 0 0 0 0 0 0 0 0 0 0 0.25 0"/>
<feBlend mode="normal" in2="BackgroundImageFix" result="effect1_dropShadow_12_106"/>
<feBlend mode="normal" in="SourceGraphic" in2="effect1_dropShadow_12_106" result="shape"/>
</filter>
<filter id="filter1_d_12_106" x="-2" y="0" width="640" height="450" filterUnits="userSpaceOnUse" color-interpolation-filters="sRGB">
<feFlood flood-opacity="0" result="BackgroundImageFix"/>
<feColorMatrix in="SourceAlpha" type="matrix" values="0 0 0 0 0 0 0 0 0 0 0 0 0 0 0 0 0 0 127 0" result="hardAlpha"/>
<feOffset dy="29"/>
<feGaussianBlur stdDeviation="26"/>
<feComposite in2="hardAlpha" operator="out"/>
<feColorMatrix type="matrix" values="0 0 0 0 0 0 0 0 0 0 0 0 0 0 0 0 0 0 0.25 0"/>
<feBlend mode="normal" in2="BackgroundImageFix" result="effect1_dropShadow_12_106"/>
<feBlend mode="normal" in="SourceGraphic" in2="effect1_dropShadow_12_106" result="shape"/>
</filter>
<clipPath id="clip0_12_106">
<rect width="536" height="346" fill="white" transform="translate(50 23)"/>
</clipPath>
</defs>
</svg>
