<svg width="236" height="30" viewBox="0 0 236 30" fill="none" xmlns="http://www.w3.org/2000/svg">
<path d="M36.2461 22C35.7904 22 35.5625 21.7559 35.5625 21.2676V8.72852C35.5625 8.24023 35.7904 7.99609 36.2461 7.99609H39.8984C42.2422 7.99609 43.8665 8.37695 44.7715 9.13867C45.6829 9.90039 46.1387 10.9811 46.1387 12.3809C46.1387 13.7806 45.6829 14.8613 44.7715 15.623C43.8665 16.3848 42.2422 16.7656 39.8984 16.7656H38.4141V21.2676C38.4141 21.7559 38.1862 22 37.7305 22H36.2461ZM38.4141 14.3828H39.8887C41.1908 14.3828 42.0762 14.2298 42.5449 13.9238C43.0137 13.6113 43.248 13.097 43.248 12.3809C43.248 11.6647 43.0137 11.1536 42.5449 10.8477C42.0762 10.5352 41.1908 10.3789 39.8887 10.3789H38.4141V14.3828ZM49.0148 22C48.5591 22 48.3313 21.7559 48.3313 21.2676V8.72852C48.3313 8.24023 48.5591 7.99609 49.0148 7.99609H53.5363C55.548 7.99609 57.0161 8.30859 57.9406 8.93359C58.8651 9.55208 59.3273 10.5612 59.3273 11.9609C59.3273 13.0026 58.953 13.8327 58.2043 14.4512C57.4556 15.0697 56.5051 15.4798 55.3527 15.6816V15.7012C55.9777 15.9355 56.4497 16.2611 56.7688 16.6777C57.0878 17.0944 57.3482 17.459 57.55 17.7715L59.6984 21.1602C60.0565 21.7201 59.9328 22 59.3273 22H57.6281C57.2701 22 56.9771 21.8079 56.7492 21.4238L54.7766 18.1328C54.5617 17.7812 54.1678 17.3971 53.5949 16.9805C53.0285 16.5573 52.4654 16.3457 51.9055 16.3457H51.1828V21.2676C51.1828 21.7559 50.9549 22 50.4992 22H49.0148ZM51.1828 13.9238H52.9309C54.2329 13.9238 55.1574 13.7773 55.7043 13.4844C56.2577 13.1849 56.5344 12.7129 56.5344 12.0684C56.5344 11.3652 56.2674 10.9095 55.7336 10.7012C55.2063 10.4863 54.4283 10.3789 53.3996 10.3789H51.1828V13.9238ZM61.3539 14.998C61.3539 12.752 61.9333 10.9681 63.0922 9.64648C64.251 8.32487 65.9047 7.66406 68.0531 7.66406C70.2016 7.66406 71.8552 8.32487 73.0141 9.64648C74.1729 10.9681 74.7523 12.752 74.7523 14.998C74.7523 17.2441 74.1729 19.028 73.0141 20.3496C71.8552 21.6712 70.2016 22.332 68.0531 22.332C65.9047 22.332 64.251 21.6712 63.0922 20.3496C61.9333 19.028 61.3539 17.2441 61.3539 14.998ZM64.4008 14.998C64.4008 16.6257 64.6905 17.8724 65.2699 18.7383C65.8559 19.5977 66.7836 20.0273 68.0531 20.0273C69.3227 20.0273 70.2471 19.5977 70.8266 18.7383C71.4125 17.8724 71.7055 16.6257 71.7055 14.998C71.7055 13.3704 71.4125 12.127 70.8266 11.2676C70.2471 10.4017 69.3227 9.96875 68.0531 9.96875C66.7836 9.96875 65.8559 10.4017 65.2699 11.2676C64.6905 12.127 64.4008 13.3704 64.4008 14.998ZM76.3883 8.83594C76.0563 8.27604 76.2092 7.99609 76.8473 7.99609H78.5563C78.8948 7.99609 79.1943 8.2207 79.4547 8.66992L81.5348 12.293C81.5934 12.3906 81.7659 12.6966 82.0523 13.2109C82.3388 13.7188 82.5048 14.2135 82.5504 14.6953H82.5895C82.635 14.2135 82.801 13.7188 83.0875 13.2109C83.374 12.6966 83.5465 12.3906 83.6051 12.293L85.6852 8.66992C85.9456 8.2207 86.2451 7.99609 86.5836 7.99609H88.2926C88.9306 7.99609 89.0836 8.27604 88.7516 8.83594L83.9957 16.873V21.4629C83.9957 21.821 83.7678 22 83.3121 22H81.8277C81.372 22 81.1441 21.821 81.1441 21.4629V16.873L76.3883 8.83594ZM90.7977 22C90.3419 22 90.1141 21.7559 90.1141 21.2676V8.72852C90.1141 8.24023 90.3419 7.99609 90.7977 7.99609H99.1766C99.6648 7.99609 99.909 8.20768 99.909 8.63086V9.7832C99.909 10.2064 99.6648 10.418 99.1766 10.418H92.9656V13.5234H98.659C99.1473 13.5234 99.3914 13.735 99.3914 14.1582V15.3105C99.3914 15.7337 99.1473 15.9453 98.659 15.9453H92.9656V19.5781H99.4891C99.9773 19.5781 100.221 19.7897 100.221 20.2129V21.3652C100.221 21.7884 99.9773 22 99.4891 22H90.7977ZM101.691 14.998C101.691 12.752 102.261 10.9681 103.4 9.64648C104.54 8.32487 106.184 7.66406 108.332 7.66406C109.569 7.66406 110.617 7.85612 111.477 8.24023C112.336 8.62435 112.941 9.18099 113.293 9.91016C113.527 10.3919 113.488 10.7174 113.176 10.8867L112.004 11.5117C111.594 11.7331 111.255 11.6094 110.988 11.1406C110.819 10.8411 110.503 10.571 110.041 10.3301C109.585 10.0892 109.048 9.96875 108.43 9.96875C107.062 9.96875 106.105 10.4017 105.559 11.2676C105.012 12.127 104.738 13.3704 104.738 14.998C104.738 16.6257 105.012 17.8724 105.559 18.7383C106.105 19.5977 107.062 20.0273 108.43 20.0273C109.165 20.0273 109.784 19.8613 110.285 19.5293C110.793 19.1973 111.145 18.8815 111.34 18.582C111.659 18.0938 111.997 17.9701 112.355 18.2109L113.527 18.9922C113.846 19.207 113.879 19.5326 113.625 19.9688C113.247 20.6198 112.6 21.1764 111.682 21.6387C110.764 22.1009 109.647 22.332 108.332 22.332C106.216 22.332 104.579 21.6712 103.42 20.3496C102.268 19.028 101.691 17.2441 101.691 14.998ZM115.564 10.4961C115.075 10.4961 114.831 10.2845 114.831 9.86133V8.63086C114.831 8.20768 115.075 7.99609 115.564 7.99609H125.603C126.091 7.99609 126.335 8.20768 126.335 8.63086V9.86133C126.335 10.2845 126.091 10.4961 125.603 10.4961H122.009V21.4629C122.009 21.821 121.846 22 121.521 22H119.646C119.32 22 119.157 21.821 119.157 21.4629V10.4961H115.564ZM134.168 10.4961C133.679 10.4961 133.435 10.2845 133.435 9.86133V8.63086C133.435 8.20768 133.679 7.99609 134.168 7.99609H144.207C144.695 7.99609 144.939 8.20768 144.939 8.63086V9.86133C144.939 10.2845 144.695 10.4961 144.207 10.4961H140.613V21.4629C140.613 21.821 140.45 22 140.125 22H138.25C137.924 22 137.761 21.821 137.761 21.4629V10.4961H134.168ZM147.317 22C146.861 22 146.634 21.7559 146.634 21.2676V8.72852C146.634 8.24023 146.861 7.99609 147.317 7.99609H151.839C153.85 7.99609 155.318 8.30859 156.243 8.93359C157.167 9.55208 157.63 10.5612 157.63 11.9609C157.63 13.0026 157.255 13.8327 156.507 14.4512C155.758 15.0697 154.807 15.4798 153.655 15.6816V15.7012C154.28 15.9355 154.752 16.2611 155.071 16.6777C155.39 17.0944 155.651 17.459 155.852 17.7715L158.001 21.1602C158.359 21.7201 158.235 22 157.63 22H155.93C155.572 22 155.279 21.8079 155.052 21.4238L153.079 18.1328C152.864 17.7812 152.47 17.3971 151.897 16.9805C151.331 16.5573 150.768 16.3457 150.208 16.3457H149.485V21.2676C149.485 21.7559 149.257 22 148.802 22H147.317ZM149.485 13.9238H151.233C152.535 13.9238 153.46 13.7773 154.007 13.4844C154.56 13.1849 154.837 12.7129 154.837 12.0684C154.837 11.3652 154.57 10.9095 154.036 10.7012C153.509 10.4863 152.731 10.3789 151.702 10.3789H149.485V13.9238ZM159.939 22C159.471 22 159.318 21.7852 159.48 21.3555L164.266 8.78711C164.467 8.25977 164.773 7.99609 165.184 7.99609H166.551C166.961 7.99609 167.267 8.25977 167.469 8.78711L172.254 21.3555C172.417 21.7852 172.264 22 171.795 22H170.242C169.812 22 169.513 21.7754 169.344 21.3262L168.348 18.6992H163.387L162.391 21.3262C162.221 21.7754 161.922 22 161.492 22H159.939ZM164.295 16.2773H167.439L166.238 13.1719C166.095 12.8073 166.007 12.5436 165.975 12.3809C165.949 12.2116 165.919 11.9642 165.887 11.6387H165.848C165.815 11.9642 165.783 12.2116 165.75 12.3809C165.724 12.5436 165.639 12.8073 165.496 13.1719L164.295 16.2773ZM173.07 14.998C173.07 12.752 173.639 10.9681 174.779 9.64648C175.918 8.32487 177.562 7.66406 179.71 7.66406C180.947 7.66406 181.995 7.85612 182.855 8.24023C183.714 8.62435 184.32 9.18099 184.671 9.91016C184.905 10.3919 184.866 10.7174 184.554 10.8867L183.382 11.5117C182.972 11.7331 182.633 11.6094 182.366 11.1406C182.197 10.8411 181.881 10.571 181.419 10.3301C180.963 10.0892 180.426 9.96875 179.808 9.96875C178.441 9.96875 177.484 10.4017 176.937 11.2676C176.39 12.127 176.116 13.3704 176.116 14.998C176.116 16.6257 176.39 17.8724 176.937 18.7383C177.484 19.5977 178.441 20.0273 179.808 20.0273C180.543 20.0273 181.162 19.8613 181.663 19.5293C182.171 19.1973 182.523 18.8815 182.718 18.582C183.037 18.0938 183.376 17.9701 183.734 18.2109L184.905 18.9922C185.224 19.207 185.257 19.5326 185.003 19.9688C184.626 20.6198 183.978 21.1764 183.06 21.6387C182.142 22.1009 181.025 22.332 179.71 22.332C177.594 22.332 175.957 21.6712 174.798 20.3496C173.646 19.028 173.07 17.2441 173.07 14.998ZM188.123 22C187.668 22 187.44 21.7559 187.44 21.2676V8.72852C187.44 8.24023 187.668 7.99609 188.123 7.99609H189.608C190.064 7.99609 190.291 8.24023 190.291 8.72852V12.6152C190.291 13.0059 190.275 13.3965 190.243 13.7871H190.311L195.057 8.57227C195.409 8.18815 195.708 7.99609 195.955 7.99609H197.918C198.68 7.99609 198.804 8.27604 198.289 8.83594L193.846 13.6992L198.602 21.1602C198.96 21.7201 198.836 22 198.231 22H196.405C196.066 22 195.773 21.8079 195.526 21.4238L191.932 15.7891L190.291 17.6348V21.2676C190.291 21.7559 190.064 22 189.608 22H188.123ZM201.224 22C200.768 22 200.541 21.7559 200.541 21.2676V8.72852C200.541 8.24023 200.768 7.99609 201.224 7.99609H209.603C210.091 7.99609 210.336 8.20768 210.336 8.63086V9.7832C210.336 10.2064 210.091 10.418 209.603 10.418H203.392V13.5234H209.086C209.574 13.5234 209.818 13.735 209.818 14.1582V15.3105C209.818 15.7337 209.574 15.9453 209.086 15.9453H203.392V19.5781H209.916C210.404 19.5781 210.648 19.7897 210.648 20.2129V21.3652C210.648 21.7884 210.404 22 209.916 22H201.224ZM213.524 22C213.068 22 212.841 21.7559 212.841 21.2676V8.72852C212.841 8.24023 213.068 7.99609 213.524 7.99609H218.046C220.057 7.99609 221.526 8.30859 222.45 8.93359C223.374 9.55208 223.837 10.5612 223.837 11.9609C223.837 13.0026 223.462 13.8327 222.714 14.4512C221.965 15.0697 221.014 15.4798 219.862 15.6816V15.7012C220.487 15.9355 220.959 16.2611 221.278 16.6777C221.597 17.0944 221.858 17.459 222.059 17.7715L224.208 21.1602C224.566 21.7201 224.442 22 223.837 22H222.137C221.779 22 221.486 21.8079 221.259 21.4238L219.286 18.1328C219.071 17.7812 218.677 17.3971 218.104 16.9805C217.538 16.5573 216.975 16.3457 216.415 16.3457H215.692V21.2676C215.692 21.7559 215.464 22 215.009 22H213.524ZM215.692 13.9238H217.44C218.742 13.9238 219.667 13.7773 220.214 13.4844C220.767 13.1849 221.044 12.7129 221.044 12.0684C221.044 11.3652 220.777 10.9095 220.243 10.7012C219.716 10.4863 218.938 10.3789 217.909 10.3789H215.692V13.9238Z" fill="#1A97B0"/>
<path fill-rule="evenodd" clip-rule="evenodd" d="M18.0584 20.4711L25.3669 13.1845C26.4195 12.1351 26.9457 11.6104 27.2229 10.9432C27.5001 10.276 27.5001 9.53399 27.5001 8.04995V7.34096C27.5001 5.05891 27.5001 3.91789 26.789 3.20894C26.078 2.5 24.9335 2.5 22.6446 2.5H21.9335C20.445 2.5 19.7007 2.5 19.0315 2.77638C18.3622 3.05275 17.836 3.57744 16.7835 4.62682L9.47489 11.9135C8.24499 13.1396 7.48239 13.9 7.18707 14.6344C7.09377 14.8664 7.04712 15.0959 7.04712 15.3365C7.04712 16.3391 7.85637 17.146 9.47489 18.7596L9.69241 18.9765L12.2406 16.3904C12.604 16.0215 13.1975 16.0171 13.5664 16.3805C13.9351 16.7439 13.9395 17.3375 13.5761 17.7064L11.0202 20.3004L11.1916 20.4711C12.8101 22.0849 13.6194 22.8916 14.625 22.8916C14.8471 22.8916 15.0597 22.8522 15.2736 22.7735C16.0277 22.4957 16.7975 21.7282 18.0584 20.4711ZM21.4919 11.914C20.5437 12.8592 19.0066 12.8592 18.0585 11.914C17.1104 10.9687 17.1104 9.43619 18.0585 8.49092C19.0066 7.54566 20.5437 7.54566 21.4919 8.49092C22.44 9.43619 22.44 10.9687 21.4919 11.914Z" fill="#1A97B0"/>
<g opacity="0.5">
<path d="M11.2929 7.45381L8.11392 10.6232C7.52961 11.2057 6.9936 11.7401 6.5703 12.2232C6.29846 12.5334 6.02681 12.873 5.79671 13.2481L5.76573 13.2172C5.70693 13.1586 5.67751 13.1292 5.64798 13.1006C5.09545 12.5645 4.44551 12.1383 3.73295 11.8447C3.69487 11.829 3.65622 11.8137 3.57892 11.7831L3.10561 11.5955C2.46441 11.3414 2.29352 10.516 2.78142 10.0296C4.18168 8.63355 5.8629 6.95742 6.67426 6.62077C7.38981 6.32388 8.16278 6.2251 8.9083 6.33527C9.59138 6.43622 10.2376 6.7871 11.2929 7.45381Z" fill="#1BB0CE"/>
<path d="M16.7209 24.1415C16.977 24.4015 17.1471 24.5851 17.301 24.7814C17.5039 25.0402 17.6854 25.3152 17.8435 25.6036C18.0215 25.9282 18.1597 26.275 18.4362 26.9685C18.6612 27.5331 19.409 27.6824 19.8432 27.2494L19.9482 27.1446C21.3485 25.7485 23.0296 24.0724 23.3672 23.2635C23.6651 22.55 23.7641 21.7794 23.6536 21.0361C23.5524 20.3551 23.2006 19.711 22.532 18.6591L19.3425 21.8391C18.7449 22.4349 18.197 22.9812 17.7015 23.4091C17.4045 23.6656 17.0796 23.922 16.7209 24.1415Z" fill="#1BB0CE"/>
</g>
</svg>
