<svg width="246" height="39" viewBox="0 0 246 39" fill="none" xmlns="http://www.w3.org/2000/svg">
<path d="M46.2461 26C45.7904 26 45.5625 25.7559 45.5625 25.2676V12.7285C45.5625 12.2402 45.7904 11.9961 46.2461 11.9961H49.8984C52.2422 11.9961 53.8665 12.377 54.7715 13.1387C55.6829 13.9004 56.1387 14.9811 56.1387 16.3809C56.1387 17.7806 55.6829 18.8613 54.7715 19.623C53.8665 20.3848 52.2422 20.7656 49.8984 20.7656H48.4141V25.2676C48.4141 25.7559 48.1862 26 47.7305 26H46.2461ZM48.4141 18.3828H49.8887C51.1908 18.3828 52.0762 18.2298 52.5449 17.9238C53.0137 17.6113 53.248 17.097 53.248 16.3809C53.248 15.6647 53.0137 15.1536 52.5449 14.8477C52.0762 14.5352 51.1908 14.3789 49.8887 14.3789H48.4141V18.3828ZM59.0148 26C58.5591 26 58.3313 25.7559 58.3313 25.2676V12.7285C58.3313 12.2402 58.5591 11.9961 59.0148 11.9961H63.5363C65.548 11.9961 67.0161 12.3086 67.9406 12.9336C68.8651 13.5521 69.3273 14.5612 69.3273 15.9609C69.3273 17.0026 68.953 17.8327 68.2043 18.4512C67.4556 19.0697 66.5051 19.4798 65.3527 19.6816V19.7012C65.9777 19.9355 66.4497 20.2611 66.7688 20.6777C67.0878 21.0944 67.3482 21.459 67.55 21.7715L69.6984 25.1602C70.0565 25.7201 69.9328 26 69.3273 26H67.6281C67.2701 26 66.9771 25.8079 66.7492 25.4238L64.7766 22.1328C64.5617 21.7812 64.1678 21.3971 63.5949 20.9805C63.0285 20.5573 62.4654 20.3457 61.9055 20.3457H61.1828V25.2676C61.1828 25.7559 60.9549 26 60.4992 26H59.0148ZM61.1828 17.9238H62.9309C64.2329 17.9238 65.1574 17.7773 65.7043 17.4844C66.2577 17.1849 66.5344 16.7129 66.5344 16.0684C66.5344 15.3652 66.2674 14.9095 65.7336 14.7012C65.2063 14.4863 64.4283 14.3789 63.3996 14.3789H61.1828V17.9238ZM71.3539 18.998C71.3539 16.752 71.9333 14.9681 73.0922 13.6465C74.251 12.3249 75.9047 11.6641 78.0531 11.6641C80.2016 11.6641 81.8552 12.3249 83.0141 13.6465C84.1729 14.9681 84.7523 16.752 84.7523 18.998C84.7523 21.2441 84.1729 23.028 83.0141 24.3496C81.8552 25.6712 80.2016 26.332 78.0531 26.332C75.9047 26.332 74.251 25.6712 73.0922 24.3496C71.9333 23.028 71.3539 21.2441 71.3539 18.998ZM74.4008 18.998C74.4008 20.6257 74.6905 21.8724 75.2699 22.7383C75.8559 23.5977 76.7836 24.0273 78.0531 24.0273C79.3227 24.0273 80.2471 23.5977 80.8266 22.7383C81.4125 21.8724 81.7055 20.6257 81.7055 18.998C81.7055 17.3704 81.4125 16.127 80.8266 15.2676C80.2471 14.4017 79.3227 13.9688 78.0531 13.9688C76.7836 13.9688 75.8559 14.4017 75.2699 15.2676C74.6905 16.127 74.4008 17.3704 74.4008 18.998ZM86.3883 12.8359C86.0563 12.276 86.2092 11.9961 86.8473 11.9961H88.5563C88.8948 11.9961 89.1943 12.2207 89.4547 12.6699L91.5348 16.293C91.5934 16.3906 91.7659 16.6966 92.0523 17.2109C92.3388 17.7188 92.5048 18.2135 92.5504 18.6953H92.5895C92.635 18.2135 92.801 17.7188 93.0875 17.2109C93.374 16.6966 93.5465 16.3906 93.6051 16.293L95.6852 12.6699C95.9456 12.2207 96.2451 11.9961 96.5836 11.9961H98.2926C98.9306 11.9961 99.0836 12.276 98.7516 12.8359L93.9957 20.873V25.4629C93.9957 25.821 93.7678 26 93.3121 26H91.8277C91.372 26 91.1441 25.821 91.1441 25.4629V20.873L86.3883 12.8359ZM100.798 26C100.342 26 100.114 25.7559 100.114 25.2676V12.7285C100.114 12.2402 100.342 11.9961 100.798 11.9961H109.177C109.665 11.9961 109.909 12.2077 109.909 12.6309V13.7832C109.909 14.2064 109.665 14.418 109.177 14.418H102.966V17.5234H108.659C109.147 17.5234 109.391 17.735 109.391 18.1582V19.3105C109.391 19.7337 109.147 19.9453 108.659 19.9453H102.966V23.5781H109.489C109.977 23.5781 110.221 23.7897 110.221 24.2129V25.3652C110.221 25.7884 109.977 26 109.489 26H100.798ZM111.691 18.998C111.691 16.752 112.261 14.9681 113.4 13.6465C114.54 12.3249 116.184 11.6641 118.332 11.6641C119.569 11.6641 120.617 11.8561 121.477 12.2402C122.336 12.6243 122.941 13.181 123.293 13.9102C123.527 14.3919 123.488 14.7174 123.176 14.8867L122.004 15.5117C121.594 15.7331 121.255 15.6094 120.988 15.1406C120.819 14.8411 120.503 14.571 120.041 14.3301C119.585 14.0892 119.048 13.9688 118.43 13.9688C117.062 13.9688 116.105 14.4017 115.559 15.2676C115.012 16.127 114.738 17.3704 114.738 18.998C114.738 20.6257 115.012 21.8724 115.559 22.7383C116.105 23.5977 117.062 24.0273 118.43 24.0273C119.165 24.0273 119.784 23.8613 120.285 23.5293C120.793 23.1973 121.145 22.8815 121.34 22.582C121.659 22.0938 121.997 21.9701 122.355 22.2109L123.527 22.9922C123.846 23.207 123.879 23.5326 123.625 23.9688C123.247 24.6198 122.6 25.1764 121.682 25.6387C120.764 26.1009 119.647 26.332 118.332 26.332C116.216 26.332 114.579 25.6712 113.42 24.3496C112.268 23.028 111.691 21.2441 111.691 18.998ZM125.564 14.4961C125.075 14.4961 124.831 14.2845 124.831 13.8613V12.6309C124.831 12.2077 125.075 11.9961 125.564 11.9961H135.603C136.091 11.9961 136.335 12.2077 136.335 12.6309V13.8613C136.335 14.2845 136.091 14.4961 135.603 14.4961H132.009V25.4629C132.009 25.821 131.846 26 131.521 26H129.646C129.32 26 129.157 25.821 129.157 25.4629V14.4961H125.564ZM144.168 14.4961C143.679 14.4961 143.435 14.2845 143.435 13.8613V12.6309C143.435 12.2077 143.679 11.9961 144.168 11.9961H154.207C154.695 11.9961 154.939 12.2077 154.939 12.6309V13.8613C154.939 14.2845 154.695 14.4961 154.207 14.4961H150.613V25.4629C150.613 25.821 150.45 26 150.125 26H148.25C147.924 26 147.761 25.821 147.761 25.4629V14.4961H144.168ZM157.317 26C156.861 26 156.634 25.7559 156.634 25.2676V12.7285C156.634 12.2402 156.861 11.9961 157.317 11.9961H161.839C163.85 11.9961 165.318 12.3086 166.243 12.9336C167.167 13.5521 167.63 14.5612 167.63 15.9609C167.63 17.0026 167.255 17.8327 166.507 18.4512C165.758 19.0697 164.807 19.4798 163.655 19.6816V19.7012C164.28 19.9355 164.752 20.2611 165.071 20.6777C165.39 21.0944 165.651 21.459 165.852 21.7715L168.001 25.1602C168.359 25.7201 168.235 26 167.63 26H165.93C165.572 26 165.279 25.8079 165.052 25.4238L163.079 22.1328C162.864 21.7812 162.47 21.3971 161.897 20.9805C161.331 20.5573 160.768 20.3457 160.208 20.3457H159.485V25.2676C159.485 25.7559 159.257 26 158.802 26H157.317ZM159.485 17.9238H161.233C162.535 17.9238 163.46 17.7773 164.007 17.4844C164.56 17.1849 164.837 16.7129 164.837 16.0684C164.837 15.3652 164.57 14.9095 164.036 14.7012C163.509 14.4863 162.731 14.3789 161.702 14.3789H159.485V17.9238ZM169.939 26C169.471 26 169.318 25.7852 169.48 25.3555L174.266 12.7871C174.467 12.2598 174.773 11.9961 175.184 11.9961H176.551C176.961 11.9961 177.267 12.2598 177.469 12.7871L182.254 25.3555C182.417 25.7852 182.264 26 181.795 26H180.242C179.812 26 179.513 25.7754 179.344 25.3262L178.348 22.6992H173.387L172.391 25.3262C172.221 25.7754 171.922 26 171.492 26H169.939ZM174.295 20.2773H177.439L176.238 17.1719C176.095 16.8073 176.007 16.5436 175.975 16.3809C175.949 16.2116 175.919 15.9642 175.887 15.6387H175.848C175.815 15.9642 175.783 16.2116 175.75 16.3809C175.724 16.5436 175.639 16.8073 175.496 17.1719L174.295 20.2773ZM183.07 18.998C183.07 16.752 183.639 14.9681 184.779 13.6465C185.918 12.3249 187.562 11.6641 189.71 11.6641C190.947 11.6641 191.995 11.8561 192.855 12.2402C193.714 12.6243 194.32 13.181 194.671 13.9102C194.905 14.3919 194.866 14.7174 194.554 14.8867L193.382 15.5117C192.972 15.7331 192.633 15.6094 192.366 15.1406C192.197 14.8411 191.881 14.571 191.419 14.3301C190.963 14.0892 190.426 13.9688 189.808 13.9688C188.441 13.9688 187.484 14.4017 186.937 15.2676C186.39 16.127 186.116 17.3704 186.116 18.998C186.116 20.6257 186.39 21.8724 186.937 22.7383C187.484 23.5977 188.441 24.0273 189.808 24.0273C190.543 24.0273 191.162 23.8613 191.663 23.5293C192.171 23.1973 192.523 22.8815 192.718 22.582C193.037 22.0938 193.376 21.9701 193.734 22.2109L194.905 22.9922C195.224 23.207 195.257 23.5326 195.003 23.9688C194.626 24.6198 193.978 25.1764 193.06 25.6387C192.142 26.1009 191.025 26.332 189.71 26.332C187.594 26.332 185.957 25.6712 184.798 24.3496C183.646 23.028 183.07 21.2441 183.07 18.998ZM198.123 26C197.668 26 197.44 25.7559 197.44 25.2676V12.7285C197.44 12.2402 197.668 11.9961 198.123 11.9961H199.608C200.064 11.9961 200.291 12.2402 200.291 12.7285V16.6152C200.291 17.0059 200.275 17.3965 200.243 17.7871H200.311L205.057 12.5723C205.409 12.1882 205.708 11.9961 205.955 11.9961H207.918C208.68 11.9961 208.804 12.276 208.289 12.8359L203.846 17.6992L208.602 25.1602C208.96 25.7201 208.836 26 208.231 26H206.405C206.066 26 205.773 25.8079 205.526 25.4238L201.932 19.7891L200.291 21.6348V25.2676C200.291 25.7559 200.064 26 199.608 26H198.123ZM211.224 26C210.768 26 210.541 25.7559 210.541 25.2676V12.7285C210.541 12.2402 210.768 11.9961 211.224 11.9961H219.603C220.091 11.9961 220.336 12.2077 220.336 12.6309V13.7832C220.336 14.2064 220.091 14.418 219.603 14.418H213.392V17.5234H219.086C219.574 17.5234 219.818 17.735 219.818 18.1582V19.3105C219.818 19.7337 219.574 19.9453 219.086 19.9453H213.392V23.5781H219.916C220.404 23.5781 220.648 23.7897 220.648 24.2129V25.3652C220.648 25.7884 220.404 26 219.916 26H211.224ZM223.524 26C223.068 26 222.841 25.7559 222.841 25.2676V12.7285C222.841 12.2402 223.068 11.9961 223.524 11.9961H228.046C230.057 11.9961 231.526 12.3086 232.45 12.9336C233.374 13.5521 233.837 14.5612 233.837 15.9609C233.837 17.0026 233.462 17.8327 232.714 18.4512C231.965 19.0697 231.014 19.4798 229.862 19.6816V19.7012C230.487 19.9355 230.959 20.2611 231.278 20.6777C231.597 21.0944 231.858 21.459 232.059 21.7715L234.208 25.1602C234.566 25.7201 234.442 26 233.837 26H232.137C231.779 26 231.486 25.8079 231.259 25.4238L229.286 22.1328C229.071 21.7812 228.677 21.3971 228.104 20.9805C227.538 20.5573 226.975 20.3457 226.415 20.3457H225.692V25.2676C225.692 25.7559 225.464 26 225.009 26H223.524ZM225.692 17.9238H227.44C228.742 17.9238 229.667 17.7773 230.214 17.4844C230.767 17.1849 231.044 16.7129 231.044 16.0684C231.044 15.3652 230.777 14.9095 230.243 14.7012C229.716 14.4863 228.938 14.3789 227.909 14.3789H225.692V17.9238Z" fill="#1A97B0"/>
<circle cx="19.5" cy="19.5" r="19.5" fill="#1A97B0"/>
<path fill-rule="evenodd" clip-rule="evenodd" d="M22.0584 25.4711L29.3669 18.1845C30.4195 17.1351 30.9457 16.6104 31.2229 15.9432C31.5001 15.276 31.5001 14.534 31.5001 13.0499V12.341C31.5001 10.0589 31.5001 8.91789 30.789 8.20894C30.078 7.5 28.9335 7.5 26.6446 7.5H25.9335C24.445 7.5 23.7008 7.5 23.0315 7.77638C22.3623 8.05275 21.836 8.57744 20.7835 9.62682L13.4749 16.9135C12.245 18.1396 11.4824 18.9 11.1871 19.6344C11.0938 19.8664 11.0471 20.0959 11.0471 20.3365C11.0471 21.3391 11.8564 22.146 13.4749 23.7596L13.6924 23.9765L16.2406 21.3904C16.604 21.0215 17.1975 21.0171 17.5664 21.3805C17.9351 21.7439 17.9395 22.3375 17.5761 22.7064L15.0203 25.3004L15.1916 25.4711C16.8101 27.0849 17.6194 27.8916 18.625 27.8916C18.8471 27.8916 19.0598 27.8522 19.2736 27.7735C20.0278 27.4957 20.7975 26.7282 22.0584 25.4711ZM25.4919 16.914C24.5438 17.8592 23.0066 17.8592 22.0585 16.914C21.1104 15.9687 21.1104 14.4362 22.0585 13.4909C23.0066 12.5457 24.5438 12.5457 25.4919 13.4909C26.44 14.4362 26.44 15.9687 25.4919 16.914Z" fill="white"/>
<g opacity="0.5">
<path d="M15.2929 12.4538L12.1139 15.6232C11.5296 16.2057 10.9936 16.7401 10.5703 17.2232C10.2985 17.5334 10.0268 17.873 9.79672 18.2481L9.76574 18.2172C9.70694 18.1586 9.67752 18.1292 9.64799 18.1006C9.09545 17.5645 8.44552 17.1383 7.73295 16.8447C7.69488 16.829 7.65623 16.8137 7.57893 16.7831L7.10562 16.5955C6.46442 16.3414 6.29353 15.516 6.78143 15.0296C8.18169 13.6335 9.8629 11.9574 10.6743 11.6208C11.3898 11.3239 12.1628 11.2251 12.9083 11.3353C13.5914 11.4362 14.2376 11.7871 15.2929 12.4538Z" fill="white"/>
<path d="M20.7209 29.1415C20.977 29.4015 21.1471 29.5851 21.301 29.7814C21.5039 30.0402 21.6854 30.3152 21.8435 30.6036C22.0215 30.9282 22.1598 31.275 22.4363 31.9685C22.6613 32.5331 23.409 32.6824 23.8433 32.2494L23.9483 32.1446C25.3485 30.7485 27.0296 29.0724 27.3673 28.2635C27.6651 27.55 27.7641 26.7794 27.6536 26.0361C27.5524 25.3551 27.2006 24.711 26.532 23.6591L23.3425 26.8391C22.7449 27.4349 22.197 27.9812 21.7015 28.4091C21.4045 28.6656 21.0796 28.922 20.7209 29.1415Z" fill="white"/>
</g>
</svg>
