<?xml version="1.0"?>
<svg width="5333.3335" height="5333.3335" xmlns="http://www.w3.org/2000/svg" xmlns:svg="http://www.w3.org/2000/svg" version="1.1">

 <g class="layer">
  <title>Layer 1</title>
  <g id="g8" transform="matrix(3.60048 0 0 -3.60048 -4554.3 10185)">
   <g id="g10" transform="translate(0 -4.54747e-13) scale(0.1 0.1)">
    <path d="m26267.85,20839.36l-7501.3,0l-287.1,-1383.6l2201,0l-727.5,-3484.4l1413.5,0l726.4,3484.4l3145.4,0c-639.9,-2258.7 -2721.1,-3919 -5181.5,-3919c-2970.1,0 -5386.8,2416.6 -5386.8,5385.6c0,792.1 171.8,1543.8 479.6,2221.8l-1488.5,0c-243.2,-696.4 -374.7,-1443.6 -374.7,-2221.8c0,-3732.3 3037,-6769.2 6770.4,-6769.2c3704.5,0 6724.2,2992 6768,6686.2l-556.9,0" fill="#4f8699" fill-rule="nonzero" id="path72"/>
    <path d="m15678.75,24057.26l5627.8,0c256,0 463.5,-207.5 463.5,-463.5c0,-255.9 -207.5,-464.6 -463.5,-464.6l-4451.7,0l-1026.2,-4473.6l1419.4,0l709.1,3090l593.8,0l2755.6,0c36.9,0 73.8,1.1 110.7,3.5c967.3,57.6 1736.4,862.4 1736.4,1844.7c0,1018.1 -829,1847.1 -1847.1,1847.1l-4178.4,0c842.8,548.9 1849.4,868.2 2928.6,868.2c2687.6,0 4923.2,-1980.8 5322.1,-4560l1396.3,0c-408.1,3344.8 -3266.4,5943.6 -6718.4,5943.6c-1998.2,0 -3796.8,-870.5 -5037.5,-2251.8c-11.5,-12.7 -23,-25.3 -33.4,-38c-362,-409.3 -675.6,-861.3 -930.4,-1349l1621.1,0c0,1.1 1.1,2.3 2.2,3.4" fill="#1bb0ce" fill-rule="nonzero" id="path74"/>
   </g>
  </g>
 </g>
</svg>